<svg width="252" height="59" viewBox="0 0 252 59" fill="none" xmlns="http://www.w3.org/2000/svg">
<path d="M60.375 18.1562V12.3906H85.2422V18.1562H75.9375V46H69.7031V18.1562H60.375ZM89.9531 46V12.3906H102.211C105.43 12.3906 107.938 13.2578 109.734 14.9922C111.531 16.7109 112.43 19.0312 112.43 21.9531C112.43 24.1875 111.875 26.1016 110.766 27.6953C109.672 29.2891 108.125 30.3828 106.125 30.9766L115.453 46H108.492L99.4688 31.5156H96.2109V46H89.9531ZM96.2109 25.75H102.258C104.883 25.75 106.195 24.4844 106.195 21.9531C106.195 19.4219 104.883 18.1562 102.258 18.1562H96.2109V25.75ZM117.234 46L128.625 12.3906H134.859L146.227 46H139.523L137.062 38.0781H126.398L123.961 46H117.234ZM128.18 32.3125H135.281L131.742 20.6641L128.18 32.3125ZM150.797 46V12.3906H172.078V18.1562H157.055V25.8438H169.148V31.6094H157.055V46H150.797ZM177.75 46V12.3906H199.031V18.1562H184.008V25.8438H196.102V31.6094H184.008V46H177.75ZM204.703 46V12.3906H210.961V46H204.703ZM217.547 29.1953C217.547 25.4609 218.289 22.2656 219.773 19.6094C222.648 14.5469 227.188 12.0156 233.391 12.0156C236.25 12.0156 238.875 12.625 241.266 13.8438C243.672 15.0469 245.602 17 247.055 19.7031C248.508 22.3906 249.234 25.5547 249.234 29.1953C249.234 32.9766 248.484 36.2109 246.984 38.8984L250.195 42.0625L245.836 46.375L242.906 43.5156C240.281 45.4219 237.109 46.375 233.391 46.375C227.188 46.375 222.648 43.8516 219.773 38.8047C218.289 36.1484 217.547 32.9453 217.547 29.1953ZM223.898 29.1953C223.898 32.9766 224.789 35.8281 226.57 37.75C228.398 39.6719 230.672 40.6328 233.391 40.6328C235.328 40.6328 237.039 40.1484 238.523 39.1797L234.164 34.7734L238.523 30.4375L242.18 34.1406C242.664 32.7188 242.906 31.0703 242.906 29.1953C242.906 25.4297 241.992 22.5859 240.164 20.6641C238.383 18.7422 236.125 17.7812 233.391 17.7812C230.672 17.7812 228.398 18.7422 226.57 20.6641C224.789 22.5859 223.898 25.4297 223.898 29.1953Z" fill="black"/>
<circle cx="24" cy="29" r="24" fill="black"/>
<circle cx="32" cy="21" r="8" fill="white"/>
</svg>
